<svg width="18" height="18" viewBox="0 0 18 18" fill="none" xmlns="http://www.w3.org/2000/svg">
<path fill-rule="evenodd" clip-rule="evenodd" d="M16.5003 4.5615C16.5003 6.252 15.1293 7.623 13.4388 7.623C11.7483 7.623 10.3781 6.252 10.3781 4.5615C10.3781 2.871 11.7483 1.5 13.4388 1.5C15.1293 1.5 16.5003 2.871 16.5003 4.5615Z" stroke="white" stroke-width="1.5" stroke-linecap="round" stroke-linejoin="round"/>
<path fill-rule="evenodd" clip-rule="evenodd" d="M7.62225 4.5615C7.62225 6.252 6.252 7.623 4.56075 7.623C2.871 7.623 1.5 6.252 1.5 4.5615C1.5 2.871 2.871 1.5 4.56075 1.5C6.252 1.5 7.62225 2.871 7.62225 4.5615Z" stroke="white" stroke-width="1.5" stroke-linecap="round" stroke-linejoin="round"/>
<path fill-rule="evenodd" clip-rule="evenodd" d="M16.5003 13.385C16.5003 15.0755 15.1293 16.4457 13.4388 16.4457C11.7483 16.4457 10.3781 15.0755 10.3781 13.385C10.3781 11.6945 11.7483 10.3235 13.4388 10.3235C15.1293 10.3235 16.5003 11.6945 16.5003 13.385Z" stroke="white" stroke-width="1.5" stroke-linecap="round" stroke-linejoin="round"/>
<path fill-rule="evenodd" clip-rule="evenodd" d="M7.62225 13.385C7.62225 15.0755 6.252 16.4457 4.56075 16.4457C2.871 16.4457 1.5 15.0755 1.5 13.385C1.5 11.6945 2.871 10.3235 4.56075 10.3235C6.252 10.3235 7.62225 11.6945 7.62225 13.385Z" stroke="white" stroke-width="1.5" stroke-linecap="round" stroke-linejoin="round"/>
</svg>
