<svg width="53" height="50" viewBox="0 0 53 50" fill="none" xmlns="http://www.w3.org/2000/svg">
<path d="M50 23.4004V2.17388C50 0.973267 49.0267 0 47.8261 0C42.8629 0 39.1304 4.97629 39.1304 10.8695V18.9329C35.9436 15.3218 31.2817 13.0435 26.0869 13.0435C19.1452 13.0435 13.1541 17.1111 10.3651 22.9925C9.85892 22.6227 9.29775 22.3242 8.69561 22.1114V19.1929C11.2288 18.2976 13.0435 15.8837 13.0435 13.0435V6.52173C13.0435 5.32112 12.0702 4.34786 10.8696 4.34786C9.66898 4.34786 8.69571 5.32112 8.69571 6.52173V13.0435C8.69561 14.245 7.72326 15.2173 6.52173 15.2173C5.32021 15.2173 4.34786 14.245 4.34786 13.0435V6.52173C4.34786 5.32112 3.37459 4.34786 2.17398 4.34786C0.973267 4.34775 0 5.32112 0 6.52173V13.0435C0 15.8837 1.81467 18.2977 4.34786 19.1929V22.1114C1.81467 23.0065 0 25.4206 0 28.2608V43.4782C0 47.0809 2.91899 49.9999 6.52173 49.9999C10.1245 49.9999 13.0435 47.0809 13.0435 43.4782V41.9365C16.2303 45.5476 20.8922 47.826 26.0869 47.826C31.2817 47.826 35.9436 45.5476 39.1304 41.9366V43.4783C39.1304 47.081 42.0494 50 45.6521 50C49.2549 50 52.1739 47.081 52.1739 43.4783V28.2608C52.1739 26.329 51.3339 24.5944 50 23.4004ZM43.4783 10.8695C43.4783 8.42119 44.3891 6.37021 45.6521 5.25438V21.7391H44.3652C43.8767 21.7391 43.4783 21.3406 43.4783 20.8521V10.8695ZM8.69561 43.4782C8.69561 44.6797 7.72326 45.652 6.52173 45.652C5.32021 45.652 4.34786 44.6797 4.34786 43.4782V28.2608C4.34786 27.0593 5.32021 26.0869 6.52173 26.0869C7.72326 26.0869 8.69561 27.0593 8.69561 28.2608V43.4782ZM26.0869 43.4782C18.8832 43.4782 13.0435 37.6385 13.0435 30.4347C13.0435 23.2309 18.8832 17.3912 26.0869 17.3912C33.2907 17.3912 39.1304 23.2309 39.1304 30.4347C39.1304 37.6385 33.2907 43.4782 26.0869 43.4782ZM47.826 43.4782C47.826 44.6797 46.8537 45.652 45.6521 45.652C44.4506 45.652 43.4783 44.6797 43.4783 43.4782V28.2608C43.4783 27.0593 44.4506 26.0869 45.6521 26.0869C46.8537 26.0869 47.826 27.0593 47.826 28.2608V43.4782Z" fill="white"/>
<path d="M26.0871 19.5656C20.0844 19.5656 15.2175 24.4323 15.2175 30.4352C15.2175 36.438 20.0844 41.3047 26.0871 41.3047C32.0899 41.3047 36.9567 36.4379 36.9567 30.4351C36.9567 24.4322 32.0899 19.5656 26.0871 19.5656ZM26.0871 36.9568C22.4856 36.9568 19.5654 34.0366 19.5654 30.4351C19.5654 26.8336 22.4856 23.9134 26.0871 23.9134C29.6886 23.9134 32.6088 26.8336 32.6088 30.4351C32.6088 34.0366 29.6886 36.9568 26.0871 36.9568Z" fill="white"/>
</svg>
